<svg width="20" height="20" viewBox="0 0 20 20" fill="none" xmlns="http://www.w3.org/2000/svg">
<mask id="mask0_320_3229" style="mask-type:luminance" maskUnits="userSpaceOnUse" x="2" y="0" width="16" height="16">
<path fill-rule="evenodd" clip-rule="evenodd" d="M2.50006 0.833344H17.9142V15.29H2.50006V0.833344Z" fill="white"/>
</mask>
<g mask="url(#mask0_320_3229)">
<path fill-rule="evenodd" clip-rule="evenodd" d="M10.2059 2.08334C7.29341 2.08334 5.26341 4.36501 5.26341 6.41251C5.26341 8.14501 4.78257 8.94584 4.35757 9.65251C4.01674 10.22 3.74757 10.6683 3.74757 11.6425C3.88674 13.2142 4.92424 14.04 10.2059 14.04C15.4584 14.04 16.5284 13.1775 16.6667 11.5883C16.6642 10.6683 16.3951 10.22 16.0542 9.65251C15.6292 8.94584 15.1484 8.14501 15.1484 6.41251C15.1484 4.36501 13.1184 2.08334 10.2059 2.08334M10.2059 15.29C6.30924 15.29 2.78757 15.015 2.50007 11.6958C2.49757 10.3225 2.91674 9.62418 3.28674 9.00918C3.66091 8.38584 4.01341 7.79834 4.01341 6.41251C4.01341 3.71834 6.50174 0.833344 10.2059 0.833344C13.9101 0.833344 16.3984 3.71834 16.3984 6.41251C16.3984 7.79834 16.7509 8.38584 17.1251 9.00918C17.4951 9.62418 17.9142 10.3225 17.9142 11.6425C17.6234 15.015 14.1026 15.29 10.2059 15.29" fill="black"/>
</g>
<path fill-rule="evenodd" clip-rule="evenodd" d="M10.1652 18.75H10.1636C9.22939 18.7492 8.34523 18.3375 7.67439 17.59C7.44356 17.3342 7.46439 16.9383 7.72106 16.7083C7.97773 16.4767 8.37273 16.4975 8.60356 16.755C9.03523 17.2358 9.58939 17.5 10.1644 17.5H10.1652C10.7427 17.5 11.2994 17.2358 11.7319 16.7542C11.9636 16.4983 12.3586 16.4775 12.6144 16.7083C12.8711 16.9392 12.8919 17.335 12.6611 17.5908C11.9877 18.3383 11.1019 18.75 10.1652 18.75" fill="black"/>
</svg>
