<?xml version="1.0" encoding="utf-8"?><svg viewBox="0 0 52 52" xmlns="http://www.w3.org/2000/svg" xmlns:xlink="http://www.w3.org/1999/xlink"><style>:root>svg{display:none}:root>svg:target{display:block}</style><svg viewBox="0 0 20 20" id="arrow-right" xmlns="http://www.w3.org/2000/svg"><path d="M6.641 16.275a.625.625 0 0 1-.06-.813l.06-.07L12.033 10 6.64 4.609a.625.625 0 0 1-.06-.814l.06-.07a.625.625 0 0 1 .814-.06l.07.06 5.834 5.833c.222.222.242.57.06.814l-.06.07-5.834 5.833a.625.625 0 0 1-.884 0Z"/></svg><svg viewBox="0 0 9 7" id="checked" xmlns="http://www.w3.org/2000/svg"><path opacity=".5" d="M3.186 4.026 6.92.293a1 1 0 0 1 1.498 1.32l-.084.094-4.44 4.44a1 1 0 0 1-1.32.083l-.094-.083L.293 3.961a1 1 0 0 1 1.32-1.498l.094.084 1.48 1.479L6.918.293 3.186 4.026Z"/></svg><svg viewBox="0 0 24 24" id="close" xmlns="http://www.w3.org/2000/svg"><path d="M19 6.41 17.59 5 12 10.59 6.41 5 5 6.41 10.59 12 5 17.59 6.41 19 12 13.41 17.59 19 19 17.59 13.41 12 19 6.41Z"/></svg><svg viewBox="0 0 20 20" id="edit-pen" xmlns="http://www.w3.org/2000/svg"><path fill-rule="evenodd" clip-rule="evenodd" d="M17.292 18.283h-6.044a.625.625 0 0 1 0-1.25h6.044a.625.625 0 0 1 0 1.25Z"/><mask id="da" maskUnits="userSpaceOnUse" x="1" y="2" width="15" height="17"><path fill-rule="evenodd" clip-rule="evenodd" d="M1.667 2.5h14.317v15.783H1.667V2.5Z"/></mask><g mask="url(#da)"><path fill-rule="evenodd" clip-rule="evenodd" d="M10.926 4.18 3.08 13.994a.732.732 0 0 0-.143.63l.568 2.403 2.532-.031a.79.79 0 0 0 .611-.294c2.68-3.354 7.792-9.749 7.937-9.936.136-.222.19-.535.118-.837a1.176 1.176 0 0 0-.543-.739c-.06-.04-1.464-1.13-1.507-1.165a1.248 1.248 0 0 0-1.727.157ZM3.01 18.284a.626.626 0 0 1-.608-.48l-.682-2.893a1.976 1.976 0 0 1 .383-1.698l7.85-9.818.01-.01a2.504 2.504 0 0 1 3.467-.34l1.435 1.117c.507.301.903.84 1.053 1.479.15.632.04 1.283-.307 1.834-.026.04-.048.076-7.988 10.01a2.039 2.039 0 0 1-1.572.76l-3.032.04H3.01Z"/></g><path fill-rule="evenodd" clip-rule="evenodd" d="M13.52 9.737a.627.627 0 0 1-.381-.129l-4.544-3.49a.626.626 0 0 1 .762-.99l4.544 3.489a.625.625 0 0 1-.381 1.12Z"/></svg><svg viewBox="0 0 24 24" id="friends" xmlns="http://www.w3.org/2000/svg"><mask id="ea" maskUnits="userSpaceOnUse" x="2" y="13" width="16" height="9"><path fill-rule="evenodd" clip-rule="evenodd" d="M2 13.957h15.184v7.1H2v-7.1Z"/></mask><g mask="url(#ea)"><path fill-rule="evenodd" clip-rule="evenodd" d="M9.592 15.457c-2.78 0-6.092.357-6.092 2.062 0 1.352 2.05 2.038 6.092 2.038s6.092-.693 6.092-2.058c0-1.355-2.05-2.042-6.092-2.042Zm0 5.6c-2.076 0-7.592 0-7.592-3.538 0-3.562 5.714-3.562 7.592-3.562 3.259 0 7.592.367 7.592 3.542 0 3.558-5.714 3.558-7.592 3.558Z"/></g><path fill-rule="evenodd" clip-rule="evenodd" d="M9.592 3.5a3.64 3.64 0 0 0-3.636 3.635 3.64 3.64 0 0 0 3.636 3.635h.03a3.594 3.594 0 0 0 2.554-1.07 3.587 3.587 0 0 0 1.05-2.562A3.64 3.64 0 0 0 9.593 3.5Zm0 8.77a5.142 5.142 0 0 1-5.136-5.135A5.142 5.142 0 0 1 9.592 2a5.141 5.141 0 0 1 5.135 5.135 5.077 5.077 0 0 1-1.487 3.622 5.081 5.081 0 0 1-3.614 1.513h-.034Zm6.89-1.138a.75.75 0 0 1-.104-1.493 2.559 2.559 0 0 0 2.192-2.52 2.538 2.538 0 0 0-2.133-2.514.75.75 0 0 1 .242-1.481A4.033 4.033 0 0 1 20.07 7.12a4.069 4.069 0 0 1-3.483 4.005.74.74 0 0 1-.105.007Z"/><mask id="eb" maskUnits="userSpaceOnUse" x="17" y="13" width="5" height="6"><path fill-rule="evenodd" clip-rule="evenodd" d="M17.845 13.483h4.134v4.978h-4.134v-4.978Z"/></mask><g mask="url(#eb)"><path fill-rule="evenodd" clip-rule="evenodd" d="M19.895 18.46a.75.75 0 0 1-.265-1.45c.85-.322.85-.715.85-.883 0-.567-.672-.955-1.995-1.152a.752.752 0 0 1-.631-.853.762.762 0 0 1 .852-.632c2.707.405 3.274 1.658 3.274 2.637 0 .729-.316 1.716-1.819 2.285a.75.75 0 0 1-.266.049Z"/></g></svg><svg viewBox="0 0 52 52" id="left-swiper" xmlns="http://www.w3.org/2000/svg"><circle cx="26" cy="26" r="25" transform="matrix(-1 0 0 1 52 0)"/><path d="M16.958 25.68h17.5m-10.442-7.028-7.058 7.028 7.058 7.029"/></svg><svg viewBox="0 0 24 24" id="love" xmlns="http://www.w3.org/2000/svg"><mask id="ga" maskUnits="userSpaceOnUse" x="2" y="3" width="21" height="20"><path fill-rule="evenodd" clip-rule="evenodd" d="M2 3h20.473v19.501H2V3Z"/></mask><g mask="url(#ga)"><path fill-rule="evenodd" clip-rule="evenodd" d="M3.824 12.123c1.402 4.362 6.94 7.89 8.413 8.762 1.477-.882 7.056-4.448 8.413-8.758.89-2.786.064-6.315-3.222-7.374-1.592-.51-3.45-.2-4.731.792a.75.75 0 0 1-.91.006 5.234 5.234 0 0 0-4.75-.798c-3.28 1.058-4.104 4.587-3.213 7.37Zm8.414 10.378a.748.748 0 0 1-.36-.09c-.312-.172-7.685-4.236-9.482-9.83h-.001c-1.128-3.523.128-7.949 4.183-9.256a6.729 6.729 0 0 1 5.657.714c1.626-1.028 3.786-1.312 5.652-.714 4.059 1.31 5.319 5.734 4.192 9.255-1.74 5.53-9.166 9.655-9.481 9.828a.743.743 0 0 1-.36.093Z"/></g><path fill-rule="evenodd" clip-rule="evenodd" d="M18.154 10.625a.75.75 0 0 1-.747-.689 2.024 2.024 0 0 0-1.4-1.769.75.75 0 0 1 .46-1.428 3.525 3.525 0 0 1 2.436 3.075.75.75 0 0 1-.75.811Z"/></svg><svg viewBox="0 0 20 20" id="notification" xmlns="http://www.w3.org/2000/svg"><mask id="ha" maskUnits="userSpaceOnUse" x="2" y="0" width="16" height="16"><path fill-rule="evenodd" clip-rule="evenodd" d="M2.5.833h15.414V15.29H2.5V.833Z"/></mask><g mask="url(#ha)"><path fill-rule="evenodd" clip-rule="evenodd" d="M10.206 2.083c-2.913 0-4.943 2.282-4.943 4.33 0 1.732-.48 2.533-.905 3.24-.341.567-.61 1.015-.61 1.99.139 1.571 1.176 2.397 6.458 2.397 5.252 0 6.322-.862 6.46-2.452-.002-.92-.27-1.368-.612-1.935-.425-.707-.906-1.508-.906-3.24 0-2.048-2.03-4.33-4.942-4.33m0 13.207c-3.897 0-7.418-.275-7.706-3.594-.002-1.373.417-2.072.787-2.687.374-.623.726-1.21.726-2.596 0-2.695 2.489-5.58 6.193-5.58 3.704 0 6.192 2.885 6.192 5.58 0 1.385.353 1.973.727 2.596.37.615.79 1.313.79 2.633-.292 3.373-3.812 3.648-7.71 3.648"/></g><path fill-rule="evenodd" clip-rule="evenodd" d="M10.165 18.75h-.001c-.935 0-1.819-.413-2.49-1.16a.624.624 0 1 1 .93-.835c.431.48.985.745 1.56.745h.001c.578 0 1.134-.264 1.567-.746a.626.626 0 0 1 .93.837c-.674.747-1.56 1.159-2.497 1.159"/></svg><svg viewBox="0 0 44 44" id="plus" xmlns="http://www.w3.org/2000/svg"><rect x="19" width="6" height="44" rx="1"/><rect width="6" height="44" rx="1" transform="matrix(0 -1 -1 0 44 25)"/></svg><svg viewBox="0 0 20 20" id="profile" xmlns="http://www.w3.org/2000/svg"><mask id="ja" maskUnits="userSpaceOnUse" x="3" y="12" width="14" height="7"><path fill-rule="evenodd" clip-rule="evenodd" d="M3.333 12.08h13.2v6.145h-13.2V12.08Z"/></mask><g mask="url(#ja)"><path fill-rule="evenodd" clip-rule="evenodd" d="M9.934 13.33c-3.55 0-5.35.61-5.35 1.814 0 1.215 1.8 1.831 5.35 1.831s5.35-.61 5.35-1.814c0-1.215-1.8-1.83-5.35-1.83Zm0 4.895c-1.632 0-6.6 0-6.6-3.08 0-2.747 3.767-3.065 6.6-3.065 1.633 0 6.6 0 6.6 3.08 0 2.748-3.767 3.065-6.6 3.065Z"/></g><mask id="jb" maskUnits="userSpaceOnUse" x="5" y="1" width="10" height="10"><path fill-rule="evenodd" clip-rule="evenodd" d="M5.508 1.667h8.85v8.849h-8.85v-8.85Z"/></mask><g mask="url(#jb)"><path fill-rule="evenodd" clip-rule="evenodd" d="M9.934 2.857A3.239 3.239 0 0 0 6.698 6.09 3.227 3.227 0 0 0 9.91 9.326l.024.595v-.595a3.239 3.239 0 0 0 3.234-3.235 3.238 3.238 0 0 0-3.234-3.235Zm0 7.659h-.027a4.416 4.416 0 0 1-4.399-4.427 4.43 4.43 0 0 1 4.426-4.423 4.43 4.43 0 0 1 4.424 4.425 4.429 4.429 0 0 1-4.424 4.425Z"/></g></svg><svg viewBox="0 0 52 52" id="right-swiper" xmlns="http://www.w3.org/2000/svg"><circle cx="26" cy="26" r="25"/><path d="M35.042 25.68h-17.5m10.442-7.028 7.058 7.028-7.058 7.029"/></svg><svg viewBox="0 0 24 24" id="smile-emoji" xmlns="http://www.w3.org/2000/svg"><path d="M8.44 14.3a.9.9 0 0 1 1.26.13c.01.02.2.22.53.43.38.24.97.49 1.77.49a3.3 3.3 0 0 0 1.77-.49c.2-.12.39-.26.53-.43a.9.9 0 0 1 1.4 1.13 4.04 4.04 0 0 1-.97.83 5.1 5.1 0 0 1-2.73.76 5.1 5.1 0 0 1-2.73-.76 3.99 3.99 0 0 1-.97-.83.9.9 0 0 1 .14-1.26Zm1.81-4.05a1.25 1.25 0 1 1-2.5 0 1.25 1.25 0 0 1 2.5 0ZM15 11.5A1.25 1.25 0 1 0 15 9a1.25 1.25 0 0 0 0 2.5Zm-3-9.4a9.9 9.9 0 1 0 0 19.8 9.9 9.9 0 0 0 0-19.8ZM3.9 12a8.1 8.1 0 1 1 16.2 0 8.1 8.1 0 0 1-16.2 0Z" clip-rule="evenodd"/></svg><svg viewBox="0 0 24 24" id="work" xmlns="http://www.w3.org/2000/svg"><path fill-rule="evenodd" clip-rule="evenodd" d="M11.995 17.427a.75.75 0 0 1-.75-.75V14.14a.75.75 0 0 1 1.5 0v2.537a.75.75 0 0 1-.75.75Z"/><mask id="ma" maskUnits="userSpaceOnUse" x="2" y="4" width="20" height="11"><path fill-rule="evenodd" clip-rule="evenodd" d="M2 4.58h19.99v10.311H2V4.581Z"/></mask><g mask="url(#ma)"><path fill-rule="evenodd" clip-rule="evenodd" d="M3.5 11.393c2.376 1.291 5.372 1.998 8.49 1.998 3.124 0 6.123-.707 8.5-1.998V8.391a2.307 2.307 0 0 0-2.3-2.31H5.81a2.308 2.308 0 0 0-2.31 2.3v3.012Zm8.49 3.498c-3.545 0-6.962-.858-9.619-2.414a.748.748 0 0 1-.37-.647V8.381a3.81 3.81 0 0 1 3.81-3.8h12.38c2.095 0 3.8 1.708 3.8 3.81v3.44a.75.75 0 0 1-.372.646c-2.657 1.556-6.077 2.414-9.629 2.414Z"/></g><mask id="mb" maskUnits="userSpaceOnUse" x="7" y="2" width="10" height="5"><path fill-rule="evenodd" clip-rule="evenodd" d="M7.745 2h8.5v4.076h-8.5V2Z"/></mask><g mask="url(#mb)"><path fill-rule="evenodd" clip-rule="evenodd" d="M15.495 6.076a.75.75 0 0 1-.75-.75V4.96c0-.805-.655-1.46-1.46-1.46h-2.58c-.805 0-1.46.655-1.46 1.46v.366a.75.75 0 0 1-1.5 0V4.96A2.964 2.964 0 0 1 10.705 2h2.58a2.964 2.964 0 0 1 2.96 2.96v.366a.75.75 0 0 1-.75.75Z"/></g><path fill-rule="evenodd" clip-rule="evenodd" d="M17.795 21.74h-11.6a4.008 4.008 0 0 1-3.979-3.69l-.19-2.51a.751.751 0 0 1 .692-.805c.415-.015.773.278.805.692l.19 2.508a2.503 2.503 0 0 0 2.482 2.305h11.6a2.502 2.502 0 0 0 2.483-2.305l.19-2.508c.032-.414.4-.708.805-.692a.75.75 0 0 1 .691.805l-.19 2.51a4.008 4.008 0 0 1-3.979 3.69Z"/></svg></svg>